<?xml version="1.0" standalone="no"?>
<!DOCTYPE svg PUBLIC "-//W3C//DTD SVG 20010904//EN"
 "http://www.w3.org/TR/2001/REC-SVG-20010904/DTD/svg10.dtd">
<svg version="1.0" xmlns="http://www.w3.org/2000/svg"
 width="1024.000000pt" height="1024.000000pt" viewBox="0 0 1024.000000 1024.000000"
 preserveAspectRatio="xMidYMid meet">

<g transform="translate(0.000000,1024.000000) scale(0.100000,-0.100000)"
fill="#000000" stroke="none">
<path d="M4900 8359 c-374 -48 -701 -204 -964 -458 -246 -239 -409 -538 -483
-890 -24 -112 -27 -148 -27 -331 -1 -240 14 -348 75 -535 71 -217 184 -417
339 -600 37 -44 324 -338 636 -652 498 -501 574 -574 609 -583 90 -22 66 -43
721 613 614 616 675 683 789 872 93 154 166 342 206 531 21 97 24 135 24 349
0 228 -2 246 -29 359 -15 66 -41 158 -58 205 -208 599 -743 1033 -1376 1116
-120 16 -354 18 -462 4z m270 -454 c5 -49 5 -49 49 -60 25 -6 46 -16 48 -22 7
-21 -17 -53 -45 -59 -46 -11 -52 -22 -52 -97 0 -132 86 -263 273 -411 138
-110 183 -185 174 -292 -6 -78 -36 -133 -112 -202 l-55 -51 0 -196 0 -196 76
-47 c42 -26 112 -73 155 -104 l79 -58 0 39 c0 57 11 79 83 168 l64 80 6 81 c5
61 3 82 -6 83 -7 1 -16 2 -22 4 -5 1 -20 3 -32 3 -29 2 -47 35 -34 60 5 10 28
24 50 31 39 11 41 14 41 50 0 43 18 64 52 59 16 -2 24 -12 29 -34 9 -45 16
-54 66 -75 41 -17 44 -21 41 -51 -3 -30 -6 -33 -40 -36 -42 -4 -45 -9 -54 -96
l-7 -64 71 -74 c98 -104 121 -156 102 -227 -6 -24 -25 -53 -49 -74 -48 -43
-50 -55 -51 -291 l0 -179 -52 -51 c-29 -28 -127 -118 -218 -201 -91 -82 -268
-252 -393 -377 -126 -124 -239 -229 -253 -232 -13 -4 -38 0 -56 7 -18 8 -163
141 -323 298 -160 156 -328 320 -373 364 l-83 80 -2 220 -2 220 32 65 c52 107
152 193 373 321 l75 44 3 190 2 190 -60 53 c-81 72 -114 136 -114 222 0 105
50 181 194 290 105 80 183 167 225 253 33 67 36 79 33 147 -3 66 -5 75 -23 78
-64 9 -66 11 -63 50 3 34 7 38 45 50 40 13 42 15 48 63 l7 50 37 -3 c35 -3 36
-4 41 -53z"/>
<path d="M5084 6589 c-15 -16 -20 -42 -25 -113 -3 -50 -5 -92 -4 -93 3 -6 99
-10 117 -5 18 4 20 12 16 97 -2 74 -7 97 -22 114 -24 27 -58 27 -82 0z"/>
<path d="M5062 5844 c-45 -31 -52 -62 -52 -234 l0 -160 110 0 110 0 0 171 0
171 -34 34 c-27 27 -42 34 -73 34 -21 0 -49 -7 -61 -16z"/>
<path d="M6349 3657 c-84 -29 -146 -79 -184 -148 -27 -49 -30 -63 -30 -144 0
-105 18 -148 84 -208 51 -46 91 -66 241 -122 181 -67 202 -81 215 -142 21
-103 -114 -172 -259 -132 -40 11 -121 78 -131 109 -9 29 -26 29 -99 0 -89 -35
-95 -47 -61 -115 62 -128 222 -203 410 -192 125 7 194 34 267 107 69 70 93
136 86 240 -6 78 -26 125 -76 175 -47 47 -101 74 -245 124 -139 48 -169 63
-196 97 -26 33 -28 100 -5 133 36 51 144 67 219 32 39 -17 95 -72 95 -92 0
-16 32 -10 103 18 91 36 101 55 61 120 -63 101 -172 154 -329 160 -85 3 -110
0 -166 -20z"/>
<path d="M7032 3668 c-17 -17 -17 -1059 0 -1076 7 -7 42 -12 88 -12 46 0 81 5
88 12 17 17 17 1059 0 1076 -16 16 -160 16 -176 0z"/>
<path d="M1382 3648 c-17 -17 -18 -1038 0 -1056 7 -7 43 -12 93 -12 50 0 86 5
93 12 9 9 12 100 12 346 l0 334 124 -248 c69 -136 131 -251 138 -255 25 -16
114 -10 130 9 9 9 70 125 136 257 l121 240 0 -335 c1 -247 4 -339 13 -348 7
-7 43 -12 93 -12 50 0 86 5 93 12 19 19 17 1041 -2 1057 -9 8 -50 11 -117 9
l-104 -3 -38 -75 c-21 -41 -88 -178 -149 -305 l-111 -230 -151 305 -151 305
-105 3 c-73 2 -109 -1 -118 -10z"/>
<path d="M4273 3583 c-9 -3 -13 -35 -13 -109 l0 -104 -65 0 c-59 0 -66 -2 -74
-23 -11 -27 -3 -117 12 -134 5 -8 33 -13 68 -13 l59 0 0 -217 c1 -156 5 -229
14 -256 33 -92 109 -146 221 -154 127 -11 175 15 175 93 0 73 -11 84 -81 84
-119 0 -129 22 -129 270 l0 180 93 0 c59 0 97 4 105 12 7 7 12 40 12 78 0 38
-5 71 -12 78 -8 8 -46 12 -106 12 l-95 0 6 86 c9 121 6 124 -96 123 -45 0 -88
-3 -94 -6z"/>
<path d="M2855 3377 c-62 -21 -98 -42 -142 -85 -91 -88 -128 -194 -121 -344 4
-88 9 -106 42 -172 64 -130 169 -201 316 -213 72 -6 162 12 229 47 49 24 111
87 111 111 0 20 -49 64 -96 87 -32 15 -33 14 -64 -16 -68 -68 -194 -68 -269 1
-24 22 -60 91 -61 115 0 9 57 12 254 12 215 0 255 2 266 15 22 26 7 179 -23
247 -34 76 -104 150 -170 179 -64 28 -209 36 -272 16z m216 -183 c35 -33 59
-81 59 -119 l0 -25 -165 0 c-186 0 -182 -2 -146 76 36 79 79 105 164 101 47
-3 62 -8 88 -33z"/>
<path d="M3615 3376 c-199 -62 -243 -302 -77 -411 20 -13 89 -38 152 -55 63
-17 125 -38 137 -46 31 -20 39 -58 19 -90 -45 -68 -188 -58 -258 19 l-38 40
-56 -24 c-31 -13 -61 -31 -67 -40 -28 -45 52 -142 147 -178 115 -43 263 -37
352 15 138 79 175 267 71 365 -35 33 -94 60 -187 85 -154 41 -189 66 -175 121
6 24 55 53 92 53 47 0 100 -25 135 -62 l37 -40 66 30 c56 27 65 35 65 57 0 99
-132 176 -299 174 -42 0 -94 -6 -116 -13z"/>
<path d="M5003 3376 c-190 -62 -295 -246 -266 -465 13 -99 47 -171 109 -235
187 -189 527 -138 636 95 106 225 29 485 -171 581 -58 28 -78 32 -166 35 -66
2 -114 -2 -142 -11z m182 -177 c87 -24 137 -104 138 -219 1 -141 -59 -218
-175 -227 -88 -7 -142 22 -180 96 -48 92 -36 226 26 297 30 34 89 63 131 64
11 0 38 -5 60 -11z"/>
<path d="M7635 3377 c-109 -37 -195 -113 -243 -215 -25 -52 -27 -67 -27 -183
0 -125 0 -125 38 -201 75 -152 217 -230 389 -214 185 17 313 131 354 317 14
59 15 87 7 150 -20 151 -97 264 -221 322 -58 27 -80 32 -162 34 -59 2 -110 -2
-135 -10z m180 -178 c50 -14 107 -72 123 -126 18 -61 15 -161 -7 -208 -22 -47
-64 -89 -104 -104 -36 -14 -108 -14 -144 0 -162 61 -163 375 -1 432 53 19 81
20 133 6z"/>
<path d="M8848 3372 c-73 -3 -79 -4 -91 -30 -12 -24 -153 -426 -172 -491 -6
-20 -16 -2 -56 105 -27 71 -67 185 -90 254 -23 69 -48 133 -57 143 -12 14 -32
17 -107 17 -70 0 -94 -3 -98 -14 -5 -12 28 -103 220 -596 30 -80 63 -153 71
-162 12 -15 32 -18 103 -18 82 0 90 2 104 23 19 30 285 721 285 741 0 24 -29
31 -112 28z"/>
<path d="M5522 2578 c-7 -7 -12 -35 -12 -63 0 -28 5 -56 12 -63 17 -17 509
-17 526 0 16 16 16 110 0 126 -17 17 -509 17 -526 0z"/>
</g>
</svg>
