<?xml version="1.0" standalone="no"?>
<!DOCTYPE svg PUBLIC "-//W3C//DTD SVG 20010904//EN"
 "http://www.w3.org/TR/2001/REC-SVG-20010904/DTD/svg10.dtd">
<svg version="1.0" xmlns="http://www.w3.org/2000/svg"
 width="1024.000000pt" height="1024.000000pt" viewBox="0 0 1024.000000 1024.000000"
 preserveAspectRatio="xMidYMid meet">

<g transform="translate(0.000000,1024.000000) scale(0.100000,-0.100000)"
fill="#000000" stroke="none">
<path d="M0 5120 l0 -5120 1575 0 c1043 0 1575 3 1575 10 0 6 7 10 15 10 8 0
15 -4 15 -10 0 -5 25 -10 55 -10 52 0 58 3 103 46 28 29 42 49 35 51 -18 7
-16 50 3 57 25 10 41 6 22 -5 -18 -10 -25 -49 -10 -49 5 0 18 11 30 25 12 14
28 25 34 25 9 0 9 3 -1 9 -11 7 -4 12 27 21 l42 11 0 50 c0 59 15 79 61 79
l33 0 -37 -35 c-41 -39 -44 -45 -22 -45 8 0 15 7 15 15 0 8 9 15 20 15 11 0
20 4 20 9 0 6 13 18 30 28 25 14 30 24 30 55 0 30 4 38 18 37 10 0 12 -3 5 -6
-7 -2 -13 -14 -13 -25 0 -14 5 -18 16 -14 9 3 18 6 20 6 2 0 4 7 4 15 0 19 44
65 61 65 7 0 10 3 6 6 -3 3 7 19 21 36 21 23 28 43 32 91 l5 62 38 3 c32 3 37
0 37 -17 0 -12 -4 -21 -10 -21 -5 0 -10 -4 -10 -10 0 -16 66 -12 80 5 7 8 16
12 21 9 12 -7 -2 29 -15 39 -10 8 5 5 37 -8 7 -3 30 10 50 30 20 19 41 35 47
35 12 0 40 24 40 34 0 12 47 54 65 59 18 4 18 5 -2 6 -13 0 -23 4 -23 7 0 23
60 94 80 94 14 0 34 20 43 42 7 21 47 24 65 6 9 -9 12 -9 12 0 0 7 9 12 20 12
24 0 60 34 60 56 0 8 4 13 9 10 11 -7 31 38 32 72 l1 27 7 -25 c9 -28 46 -85
76 -117 26 -27 86 -63 105 -63 8 0 -3 9 -25 20 -77 37 -133 109 -146 189 -7
49 2 173 16 205 6 15 5 17 -5 11 -9 -5 -11 -4 -6 4 4 6 11 9 16 6 4 -3 47 61
95 143 48 81 96 162 107 179 11 18 16 38 12 44 -4 7 -3 9 4 5 6 -4 26 21 48
61 21 38 55 96 76 131 21 35 35 68 32 74 -4 7 -2 8 4 4 8 -4 16 3 22 20 l10
26 26 -37 25 -37 -24 -37 c-51 -76 -68 -111 -61 -123 4 -7 4 -10 -1 -6 -11 10
-77 -100 -69 -114 5 -7 2 -8 -6 -3 -10 6 -12 4 -7 -8 3 -9 2 -16 -3 -14 -15 4
-231 -366 -220 -377 6 -6 10 -24 10 -40 0 -29 1 -29 17 -13 16 16 16 19 2 43
-14 24 -14 29 8 72 13 26 29 51 35 57 7 5 6 2 -1 -8 -8 -9 -11 -21 -7 -24 4
-4 11 -1 16 7 8 12 10 12 10 2 0 -8 -8 -16 -19 -19 -19 -5 -41 -42 -41 -70 0
-14 2 -14 15 3 8 10 15 14 15 7 0 -6 -4 -14 -9 -17 -5 -3 -7 -15 -4 -27 4 -16
8 -17 14 -7 6 9 9 2 9 -19 0 -17 4 -33 10 -35 5 -1 11 -19 12 -40 5 -63 13
-30 9 38 -3 58 0 70 35 131 44 80 201 241 287 296 l57 37 0 98 c0 95 -1 100
-37 158 -66 108 -173 299 -173 310 0 13 317 25 440 17 92 -7 94 -10 50 -80
-17 -26 -28 -54 -25 -61 2 -7 0 -10 -5 -7 -5 3 -21 -18 -36 -47 -15 -29 -46
-84 -70 -121 l-44 -68 0 -97 0 -98 70 -57 c62 -50 77 -57 68 -29 -2 4 -7 7
-13 7 -5 0 -25 11 -42 24 -22 17 -30 28 -23 36 6 7 2 15 -13 25 -20 12 -21 12
-8 -4 18 -22 8 -31 -13 -11 -13 13 -16 38 -16 116 0 61 4 98 10 94 5 -3 7 -13
4 -23 -5 -13 -4 -14 4 -4 5 8 13 13 18 11 5 -1 15 9 22 22 l14 24 -6 -25 c-4
-21 -1 -26 15 -27 16 -2 18 1 9 12 -10 13 -12 100 -1 89 3 -3 4 -20 3 -37 -2
-23 3 -39 17 -51 25 -23 26 -18 6 20 -8 16 -15 36 -14 44 0 8 5 4 10 -9 5 -13
18 -35 29 -50 14 -21 16 -31 8 -39 -9 -9 -9 -15 1 -24 10 -11 11 -10 6 5 -8
18 9 24 20 7 9 -14 -14 -42 -28 -33 -6 4 -7 1 -3 -6 6 -9 13 -8 27 4 17 16 18
16 24 -8 4 -14 13 -28 21 -31 16 -6 -2 28 -88 168 -36 58 -46 82 -38 90 15 15
20 8 146 -211 58 -101 108 -183 110 -183 3 0 3 3 1 8 -2 4 -41 72 -87 152 -45
80 -96 166 -112 193 -18 28 -28 55 -25 67 3 11 1 18 -4 14 -10 -6 -12 9 -2 19
8 9 24 -14 69 -100 20 -37 63 -111 95 -165 33 -53 59 -101 59 -106 0 -5 8 -16
18 -23 15 -13 16 -12 3 4 -8 9 -11 20 -8 23 3 4 -2 15 -12 25 -14 15 -107 172
-119 201 -2 4 2 8 10 8 7 0 21 9 31 20 11 13 25 19 40 15 14 -3 32 4 52 20 24
20 26 25 12 25 -27 0 -17 33 13 42 14 4 37 10 53 13 41 8 33 25 -13 25 -33 0
-40 3 -40 20 0 15 -7 20 -25 20 -18 0 -25 5 -25 20 0 11 7 20 15 20 8 0 15 -4
15 -10 0 -5 23 -10 50 -10 28 0 50 5 50 10 0 6 -10 10 -22 10 l-23 1 24 19
c14 12 38 20 62 20 l39 0 0 -45 c0 -25 4 -45 9 -45 5 0 26 10 45 23 33 20 36
26 34 67 0 25 -7 60 -14 78 -8 18 -13 36 -13 40 1 4 1 18 0 32 -1 20 -3 22
-11 10 -7 -11 -8 -5 -3 19 3 20 2 32 -3 29 -5 -4 -9 6 -10 20 0 15 -26 126
-57 247 -58 221 -72 296 -37 195 22 -65 81 -260 105 -345 10 -33 27 -94 40
-135 12 -41 31 -107 41 -147 9 -40 21 -70 26 -67 4 3 3 14 -3 25 -5 11 -7 30
-4 42 5 18 4 19 -5 7 -9 -12 -10 -8 -5 17 4 20 3 33 -3 33 -6 0 -13 19 -17 43
-4 23 -13 45 -19 49 -8 6 -7 8 1 8 7 0 19 -15 27 -33 14 -30 14 -31 16 -7 1
23 2 23 10 5 6 -14 7 -6 5 25 -4 41 -2 46 18 47 12 1 23 6 24 10 13 38 45 71
82 83 22 7 41 17 41 22 0 4 9 8 20 8 11 0 20 7 20 15 0 8 5 26 12 40 11 25 13
26 102 23 72 -2 94 0 103 12 10 13 12 13 19 -3 4 -12 0 -23 -12 -32 -17 -13
-17 -14 -2 -15 9 0 19 6 22 13 3 8 11 5 25 -12 12 -13 21 -19 21 -14 0 6 -9
20 -20 33 -11 12 -17 27 -14 31 3 5 -2 9 -10 9 -10 0 -13 6 -10 17 4 14 1 13
-13 -4 -16 -20 -29 -22 -125 -25 -58 -2 -105 -1 -103 2 2 3 -12 15 -31 28 -19
12 -34 18 -34 13 0 -6 5 -13 11 -17 8 -5 6 -10 -5 -16 -18 -10 -36 -3 -35 15
0 9 2 9 6 0 2 -7 8 -13 11 -13 4 0 6 244 4 542 -2 512 -4 546 -23 604 -40 123
-109 198 -216 236 -76 26 -205 22 -275 -9 -103 -47 -177 -151 -198 -280 -6
-32 -10 -278 -10 -547 l0 -488 -34 -34 -34 -34 -100 0 -100 0 -36 40 -36 40 0
504 c0 408 3 520 15 592 28 157 90 280 196 384 75 75 147 120 251 158 67 25
85 27 228 27 136 0 164 -3 225 -23 90 -31 189 -89 259 -153 l56 -51 65 60 c72
68 192 132 295 158 95 25 254 22 353 -5 88 -24 191 -74 257 -125 24 -19 49
-32 55 -29 5 4 7 3 3 -1 -3 -4 15 -35 42 -68 27 -34 61 -85 77 -114 15 -29 32
-50 37 -47 5 3 6 1 2 -5 -4 -6 3 -40 14 -74 12 -36 24 -103 27 -158 3 -52 11
-98 17 -102 15 -11 28 -10 22 1 -4 5 0 12 6 15 7 3 3 3 -9 0 -21 -5 -22 -1
-25 81 -3 81 2 104 16 69 3 -9 6 -27 6 -40 0 -13 4 -24 9 -24 6 0 12 -15 14
-32 2 -18 3 -6 0 27 -2 33 1 67 7 75 7 11 10 -12 10 -77 0 -64 -4 -93 -12 -96
-10 -4 -9 -8 2 -16 13 -9 16 5 21 107 7 123 28 207 75 291 13 24 21 48 17 54
-3 6 -1 7 5 3 13 -8 35 28 24 39 -4 5 -2 5 4 2 6 -3 20 7 32 22 l21 29 -72 25
c-40 14 -135 46 -212 71 -186 60 -152 58 61 -3 93 -27 181 -51 194 -52 14 -2
28 -8 32 -14 5 -7 12 -7 21 0 8 6 39 27 70 49 31 21 55 42 53 45 -3 4 3 7 12
8 24 2 143 48 138 54 -8 8 92 14 266 14 97 0 171 3 166 6 -6 4 -1 10 12 14 12
4 30 14 40 23 10 10 25 23 34 30 8 6 13 19 10 27 -6 13 6 20 29 16 4 0 7 6 7
15 0 19 48 64 68 64 6 0 12 11 12 25 0 26 26 38 83 38 15 0 23 3 17 7 -6 4 -8
15 -4 25 5 11 4 16 -3 12 -6 -4 -8 3 -5 18 2 14 9 28 15 32 6 4 8 0 4 -10 -6
-16 37 -67 57 -67 6 0 -1 10 -16 21 l-28 21 0 248 c0 200 3 250 14 259 10 8
72 11 210 9 169 -3 196 -1 197 12 0 10 2 11 6 3 3 -8 23 -13 52 -13 26 0 52
-5 59 -12 9 -9 12 -70 12 -212 0 -109 2 -197 5 -194 3 2 5 96 5 208 1 174 -1
206 -14 216 -25 17 -19 25 9 12 18 -8 24 -17 19 -30 -3 -10 -1 -18 5 -18 6 0
11 4 11 9 0 5 3 16 6 25 4 11 1 16 -10 16 -9 0 -16 5 -16 11 0 6 7 8 16 5 11
-4 15 -2 11 6 -3 9 7 14 30 15 23 1 42 11 62 32 16 17 38 31 50 31 23 0 29 16
9 22 -9 3 -9 6 0 12 7 4 12 2 12 -3 0 -6 4 -11 9 -11 5 0 12 18 16 40 4 22 10
39 13 39 44 -6 68 3 80 31 11 25 19 30 48 30 19 0 34 4 34 9 0 5 8 12 18 15
10 3 22 21 27 39 8 25 16 33 39 35 16 2 33 -2 38 -10 5 -8 6 -3 2 14 -4 21 0
33 20 52 14 15 32 26 41 26 8 0 15 9 15 19 0 11 8 22 18 25 11 4 25 18 32 32
8 13 19 23 26 20 7 -3 24 4 37 15 14 10 30 19 36 19 6 0 11 7 11 15 0 8 7 15
15 15 8 0 15 5 15 10 0 23 51 90 68 90 10 0 28 9 40 20 l22 21 0 2129 0 2130
-5120 0 -5120 0 0 -5120z m5307 4098 c-3 -8 -6 -5 -6 6 -1 11 2 17 5 13 3 -3
4 -12 1 -19z m323 -18 c0 -5 -8 -10 -17 -10 -15 0 -16 2 -3 10 19 12 20 12 20
0z m-354 -31 c19 -22 19 -22 -3 -10 -13 6 -23 16 -23 21 0 15 5 12 26 -11z
m291 -21 c-3 -7 -5 -2 -5 12 0 14 2 19 5 13 2 -7 2 -19 0 -25z m-156 -395 c-6
-12 -8 -8 -6 18 2 18 5 88 7 154 l2 120 3 -138 c2 -76 -1 -145 -6 -154z m236
130 c-2 -32 -3 -8 -3 52 0 61 1 87 3 58 2 -29 2 -78 0 -110z m-70 -59 c-3 -3
-12 -4 -19 -1 -8 3 -5 6 6 6 11 1 17 -2 13 -5z m538 -26 c-4 -13 -14 -30 -22
-38 -13 -13 -13 -11 -7 15 9 38 13 45 25 45 6 0 7 -10 4 -22z m-1852 -68 c3
-11 1 -18 -4 -14 -5 3 -9 12 -9 20 0 20 7 17 13 -6z m1825 -25 c-3 -3 -9 2
-12 12 -6 14 -5 15 5 6 7 -7 10 -15 7 -18z m-2540 -105 c-7 -10 -14 -17 -17
-15 -4 4 18 35 25 35 2 0 -1 -9 -8 -20z m-40 -25 c-3 -3 -9 2 -12 12 -6 14 -5
15 5 6 7 -7 10 -15 7 -18z m3425 7 c9 -10 20 -33 23 -50 5 -26 9 -30 21 -21
11 10 12 8 7 -5 -4 -10 -12 -15 -19 -12 -7 2 -15 -4 -18 -15 -6 -24 21 -109
34 -109 11 0 2 64 -13 93 -5 10 -5 17 0 17 13 0 34 -88 27 -111 -4 -10 -10
-19 -14 -19 -9 0 -35 51 -33 63 1 4 -3 7 -9 7 -6 0 -9 7 -5 15 3 9 0 15 -10
15 -20 0 -112 -96 -117 -123 -4 -21 -4 -21 -6 1 -1 28 105 145 123 135 6 -3 5
0 -1 8 -7 7 -13 21 -13 30 0 10 -10 25 -22 33 -25 18 -17 21 13 6 10 -6 19
-19 19 -30 0 -25 16 -34 24 -13 10 25 -14 83 -38 93 -14 6 -16 9 -5 9 9 1 23
-7 32 -17z m-276 -8 c-3 -3 -12 -4 -19 -1 -8 3 -5 6 6 6 11 1 17 -2 13 -5z
m131 -1 c-10 -2 -26 -2 -35 0 -10 3 -2 5 17 5 19 0 27 -2 18 -5z m-1644 -34
c-2 -4 3 -10 12 -13 12 -5 15 -2 10 11 -4 10 -4 14 0 10 4 -4 12 -3 18 3 8 6
12 3 13 -11 1 -11 -5 -23 -13 -26 -7 -3 -11 -10 -7 -17 4 -6 -4 -4 -17 5 -15
10 -26 27 -27 45 -2 20 0 25 7 14 5 -8 7 -17 4 -21z m-1602 -11 c-8 -8 -9 -4
-5 13 4 13 8 18 11 10 2 -7 -1 -18 -6 -23z m3084 7 c-2 -7 14 -32 37 -54 22
-23 36 -41 31 -41 -19 0 -79 71 -79 95 -1 13 3 21 8 18 4 -3 6 -11 3 -18z
m394 -5 c0 -5 -2 -10 -4 -10 -3 0 -8 5 -11 10 -3 6 -1 10 4 10 6 0 11 -4 11
-10z m-138 -64 c-6 -10 -31 33 -32 54 0 8 8 2 19 -15 10 -16 16 -34 13 -39z
m135 8 c-3 -3 -12 -4 -19 -1 -8 3 -5 6 6 6 11 1 17 -2 13 -5z m91 -41 c92 -51
172 -132 172 -173 0 -62 -87 -58 -220 10 -68 36 -52 39 22 5 29 -13 77 -30
107 -37 49 -11 55 -10 67 7 11 15 11 22 -4 48 -18 31 -132 122 -189 151 -30
15 -42 26 -27 26 3 0 36 -17 72 -37z m-373 -11 c-3 -3 -11 0 -18 7 -9 10 -8
11 6 5 10 -3 15 -9 12 -12z m243 -146 c-35 -78 -178 -71 -178 8 0 16 4 12 18
-14 12 -26 25 -36 46 -38 41 -5 79 14 100 49 22 37 32 33 14 -5z m-180 -114
c3 -16 -7 -34 -32 -58 -20 -19 -37 -32 -37 -29 -7 30 -3 74 8 93 19 30 57 26
61 -6z m-3153 -190 c-3 -3 -11 0 -18 7 -9 10 -8 11 6 5 10 -3 15 -9 12 -12z
m4069 -70 c6 -9 -117 -131 -429 -428 -342 -325 -345 -328 -345 -306 0 17 152
152 163 145 5 -3 7 -1 3 5 -3 6 41 56 100 114 59 57 193 187 298 290 105 103
194 187 198 188 4 0 9 -4 12 -8z m-5039 -40 c-3 -3 -11 0 -18 7 -9 10 -8 11 6
5 10 -3 15 -9 12 -12z m105 -94 c10 -21 10 -21 -3 -6 -8 10 -18 14 -22 10 -5
-4 -5 -1 -1 6 10 17 14 15 26 -10z m1769 -435 l31 -38 0 -707 0 -708 305 0
305 0 0 111 0 111 34 34 34 34 105 0 c103 0 106 -1 135 -30 16 -16 32 -44 35
-62 3 -18 2 -202 -2 -408 l-8 -375 -28 -75 c-61 -163 -159 -268 -318 -340 -84
-38 -157 -50 -307 -50 -165 0 -225 12 -337 66 -192 92 -312 257 -313 430 0 33
6 46 36 75 l35 34 104 0 c123 0 134 -6 165 -101 37 -112 106 -153 266 -162
142 -7 204 3 261 41 71 48 97 106 101 229 l4 98 -369 0 -369 0 -52 26 c-53 26
-104 79 -138 144 -18 33 -19 74 -22 816 l-2 782 35 31 c35 30 37 31 140 31
l104 0 30 -37z m-2114 -47 c123 -34 236 -98 332 -189 l42 -40 70 65 c77 72
196 138 296 164 92 24 265 29 355 10 94 -20 236 -89 315 -155 79 -65 157 -170
195 -260 58 -142 60 -165 60 -786 0 -588 0 -585 -43 -632 -19 -21 -29 -23
-125 -23 -103 0 -104 0 -133 31 l-29 31 0 532 c0 296 -5 562 -10 601 -22 154
-119 276 -251 316 -101 31 -242 24 -317 -15 -64 -33 -133 -99 -161 -155 -48
-93 -51 -130 -51 -720 l0 -554 -26 -34 -25 -33 -111 0 -111 0 -33 36 -34 35 0
543 c0 322 -4 565 -10 597 -24 128 -102 230 -219 286 -74 36 -223 45 -310 18
-118 -36 -219 -132 -259 -250 -15 -45 -17 -108 -18 -618 -1 -551 -2 -569 -21
-595 -33 -45 -59 -53 -157 -49 l-89 3 -34 39 -33 38 0 576 c0 653 1 658 74
806 102 205 270 337 501 391 78 18 287 12 370 -10z m6033 7 c2 -8 -5 -13 -17
-13 -19 0 -21 -6 -21 -65 0 -51 -3 -65 -15 -65 -12 0 -15 14 -15 65 0 58 -2
65 -20 65 -11 0 -20 7 -20 16 0 12 10 14 52 12 30 -2 53 -8 56 -15z m83 -43
c7 -27 16 -50 19 -50 3 0 14 23 24 51 13 35 23 49 35 47 20 -4 25 -28 16 -94
-8 -67 -25 -71 -26 -6 l0 47 -17 -45 c-10 -25 -24 -45 -31 -45 -8 0 -21 20
-30 45 l-16 45 -3 -47 c-2 -34 -7 -48 -18 -48 -11 0 -14 16 -14 75 0 73 1 75
24 75 21 0 26 -7 37 -50z m-2602 -15 l31 -36 0 -847 0 -847 -31 -38 -30 -37
-105 0 c-100 0 -105 1 -136 29 l-33 29 -3 856 -2 855 31 35 31 36 108 0 108 0
31 -35z m903 -34 c115 -45 198 -139 198 -223 0 -116 -121 -231 -223 -211 -26
5 -86 56 -125 106 -26 34 -129 11 -174 -39 -9 -11 -28 -44 -42 -74 -23 -50
-26 -67 -26 -177 l0 -123 215 0 c118 0 217 1 220 3 2 1 22 -16 45 -38 l40 -39
0 -102 0 -102 -42 -36 -42 -36 -218 0 -218 0 0 -495 c0 -547 1 -536 -63 -575
-43 -27 -180 -28 -217 -3 -64 44 -59 -22 -60 855 0 896 0 892 70 1034 66 135
168 229 301 280 57 21 77 23 184 21 97 -2 131 -7 177 -26z m1254 -2 c164 -50
312 -166 383 -298 l32 -61 50 0 c27 0 49 -4 49 -10 0 -5 -21 -10 -46 -10 -40
0 -45 -2 -39 -17 29 -75 35 -138 35 -345 l0 -218 -34 -38 -34 -37 -533 -3
-532 -3 6 -69 c10 -124 65 -210 162 -256 47 -23 61 -24 245 -24 168 0 201 3
235 19 72 33 111 82 134 168 19 69 46 83 164 83 l101 0 38 -37 c33 -32 38 -43
38 -81 0 -41 2 -44 23 -38 57 14 221 36 234 32 28 -11 2 -24 -70 -35 -202 -32
-193 -29 -206 -70 -15 -53 -79 -147 -136 -204 -66 -64 -143 -114 -234 -151
l-76 -31 -250 0 c-246 0 -251 0 -317 26 -190 74 -330 212 -390 387 -22 65 -23
76 -23 442 l0 375 29 83 c53 155 173 298 311 370 112 58 183 71 391 71 167 1
201 -2 260 -20z m-5861 -478 c3 -5 2 -12 -3 -15 -5 -3 -9 1 -9 9 0 17 3 19 12
6z m7022 -1467 c-3 -3 -12 -4 -19 -1 -8 3 -5 6 6 6 11 1 17 -2 13 -5z m-7547
-14 c0 -5 -7 -10 -16 -10 -9 0 -32 -16 -51 -36 -19 -20 -37 -34 -40 -30 -4 3
-1 6 6 6 7 0 10 4 7 9 -9 14 49 60 92 70 1 1 2 -3 2 -9z m58 -4 c38 -20 62
-66 62 -116 0 -25 -4 -50 -8 -57 -4 -6 -7 17 -7 52 0 70 -16 97 -70 121 -16 7
-23 13 -15 13 8 0 25 -5 38 -13z m-175 -131 c-3 -9 -8 -14 -10 -11 -3 3 -2 9
2 15 9 16 15 13 8 -4z m-16 -57 c-3 -8 -6 -5 -6 6 -1 11 2 17 5 13 3 -3 4 -12
1 -19z m-44 -5 c-7 -2 -19 -2 -25 0 -7 3 -2 5 12 5 14 0 19 -2 13 -5z m-50
-10 c-7 -2 -19 -2 -25 0 -7 3 -2 5 12 5 14 0 19 -2 13 -5z m237 -10 c27 -15
56 -60 46 -70 -2 -2 -7 5 -11 17 -12 38 -115 83 -115 50 0 -5 -4 -10 -10 -10
-5 0 -7 7 -4 15 8 20 59 19 94 -2z m-305 -3 c3 -5 1 -10 -4 -10 -6 0 -11 5
-11 10 0 6 2 10 4 10 3 0 8 -4 11 -10z m-81 -44 c-16 -13 -31 -22 -34 -19 -3
3 8 15 25 28 38 31 46 23 9 -9z m394 -9 c21 -22 27 -34 18 -34 -8 0 -14 3 -13
7 1 3 -11 18 -28 33 -16 14 -25 27 -19 27 5 0 25 -15 42 -33z m6881 4 l21 -29
-34 -21 c-32 -20 -63 -20 -76 0 -3 4 -285 11 -628 15 -342 4 -622 10 -622 14
0 6 663 19 1097 21 121 1 153 4 157 15 10 26 63 17 85 -15z m-6577 7 c2 -6 20
-11 39 -11 26 1 29 -1 14 -7 -19 -7 -18 -8 5 -13 18 -3 16 -4 -9 -4 -19 1 -36
-4 -39 -11 -8 -26 -92 -4 -92 24 0 22 75 43 82 22z m-705 -81 c7 -4 13 -13 13
-19 0 -6 -11 1 -25 16 -14 15 -25 32 -25 39 0 7 6 3 12 -8 6 -11 17 -24 25
-28z m331 7 c-4 -3 -12 5 -18 18 -12 22 -12 22 6 6 10 -10 15 -20 12 -24z m67
17 c3 -6 -5 -15 -17 -21 -21 -10 -21 -10 -6 3 10 8 15 17 11 20 -3 4 -4 7 0 7
3 0 8 -4 12 -9z m-101 -27 c3 -8 2 -12 -4 -9 -6 3 -10 10 -10 16 0 14 7 11 14
-7z m-128 -38 c56 0 100 -4 97 -8 -13 -23 -243 0 -243 24 0 5 10 3 22 -3 12
-6 67 -12 124 -13z m202 -8 c-2 -6 10 -16 25 -22 24 -9 31 -7 43 9 11 15 14
16 14 3 0 -22 -26 -41 -48 -34 -10 4 -29 18 -42 31 -20 21 -21 25 -7 25 9 0
16 -5 15 -12z m2228 -62 l34 -34 0 -191 0 -191 53 0 c28 0 119 -3 202 -7 204
-8 221 -21 224 -174 2 -88 2 -89 -33 -126 l-34 -38 -206 -3 -206 -3 0 -430 c0
-365 2 -435 15 -467 22 -51 52 -81 91 -88 30 -5 37 -1 103 66 l71 73 50 -5
c65 -6 112 -43 157 -124 45 -78 41 -123 -13 -194 -48 -63 -120 -112 -204 -141
-55 -18 -81 -20 -172 -17 -60 3 -108 1 -108 -4 0 -4 -5 -8 -11 -8 -6 0 -9 6
-6 14 4 9 -12 21 -46 37 -113 52 -227 206 -256 347 -7 36 -11 315 -11 865 l0
811 32 33 32 33 104 0 104 0 34 -34z m905 -45 l39 -39 0 -120 0 -120 -41 -37
-41 -37 -95 4 -95 3 -34 37 -34 38 0 104 c0 124 7 146 57 180 33 23 48 26 121
26 l84 0 39 -39z m3100 -379 c-7 -2 -18 1 -23 6 -8 8 -4 9 13 5 13 -4 18 -8
10 -11z m-3089 -31 l33 -29 0 -792 0 -791 -37 -35 c-37 -34 -39 -34 -132 -34
-79 0 -97 3 -120 21 -58 46 -56 10 -56 848 l0 770 31 36 31 35 109 0 c106 0
110 -1 141 -29z m3038 15 c0 -2 -7 -7 -16 -10 -8 -3 -12 -2 -9 4 6 10 25 14
25 6z m-5447 -193 c-7 -2 -21 -2 -30 0 -10 3 -4 5 12 5 17 0 24 -2 18 -5z
m5184 -22 c0 -11 -5 -18 -9 -15 -4 3 -5 11 -1 19 7 21 12 19 10 -4z m-5442
-42 c-301 -75 -596 -141 -603 -134 -13 13 24 23 346 94 180 40 341 76 357 81
17 4 34 5 40 1 5 -3 -58 -22 -140 -42z m188 44 c-7 -2 -19 -2 -25 0 -7 3 -2 5
12 5 14 0 19 -2 13 -5z m5217 -81 c-24 -42 -27 -44 -33 -27 -4 10 -3 14 4 9 8
-4 9 1 4 17 -5 19 -4 21 4 9 10 -14 15 -7 12 13 -1 5 3 6 9 2 7 -4 7 -12 0
-23z m-50 -37 c0 -5 -5 -3 -10 5 -5 8 -10 20 -10 25 0 6 5 3 10 -5 5 -8 10
-19 10 -25z m-117 -68 c-3 -5 -9 -3 -14 4 -4 7 -5 17 -2 22 3 5 9 3 14 -4 4
-7 5 -17 2 -22z m104 -49 c-3 -8 -6 -5 -6 6 -1 11 2 17 5 13 3 -3 4 -12 1 -19z
m-4781 -402 c-16 -14 -36 -22 -45 -19 -9 4 -13 3 -9 -2 4 -4 -2 -13 -15 -20
-370 -195 -463 -249 -459 -269 2 -10 -7 -18 -25 -22 -15 -3 -36 -8 -46 -11
-16 -4 -18 0 -15 28 2 28 9 35 33 42 26 8 219 103 520 256 44 23 82 41 85 41
3 -1 -8 -11 -24 -24z m-818 -226 c20 -33 81 -128 135 -210 57 -88 97 -160 97
-175 0 -26 -27 -49 -121 -106 -24 -15 -84 -53 -134 -85 -154 -98 -164 -103
-194 -93 -17 6 -39 31 -61 67 -18 31 -75 120 -127 196 -51 77 -93 147 -93 157
0 10 11 25 24 34 17 12 22 22 18 42 -5 24 -3 25 24 20 23 -4 43 4 94 37 182
120 178 118 185 95 4 -12 2 -26 -4 -32 -14 -14 -14 -27 -1 -27 6 0 10 7 10 15
0 17 16 20 26 4 3 -6 0 -18 -9 -26 -12 -12 -19 -13 -37 -3 -13 7 -19 17 -16
27 10 24 -4 34 -22 16 -9 -9 -61 -45 -114 -80 -54 -34 -98 -65 -98 -68 0 -21
22 -44 38 -38 13 5 15 3 5 -7 -15 -17 -43 -5 -50 21 -6 20 -6 20 -29 -2 -13
-12 -24 -26 -24 -30 0 -4 59 -95 131 -203 84 -126 137 -196 148 -196 9 0 48
20 86 45 39 24 117 74 175 110 148 92 156 99 141 133 -7 15 -50 83 -95 152
-45 69 -94 145 -108 170 -36 63 -63 86 -82 71 -12 -10 -13 -16 -3 -32 8 -14 9
-24 1 -36 -17 -27 -28 -25 -47 6 l-17 29 38 31 c53 44 67 40 110 -29z m-12
-137 c-3 -3 -13 -3 -22 1 -13 5 -14 9 -3 22 11 14 13 14 22 -1 5 -9 6 -19 3
-22z m-73 -30 c4 -3 2 -12 -4 -20 -9 -10 -15 -10 -25 -2 -8 6 -11 15 -8 20 6
11 28 12 37 2z m130 -46 c-5 -8 -8 -7 -11 1 -2 7 -8 12 -13 12 -6 0 -7 -5 -3
-12 4 -7 3 -8 -5 -4 -9 6 -9 11 0 22 9 11 15 11 25 3 8 -6 11 -16 7 -22z
m-415 4 c3 -8 -1 -12 -9 -9 -7 2 -15 10 -17 17 -3 8 1 12 9 9 7 -2 15 -10 17
-17z m212 -11 c0 -12 -28 -25 -36 -17 -9 9 6 27 22 27 8 0 14 -5 14 -10z m127
-27 c4 -11 -26 -27 -35 -19 -2 3 -2 12 2 21 6 18 27 16 33 -2z m-207 -29 c0
-14 -21 -19 -33 -7 -9 9 13 34 24 27 5 -3 9 -12 9 -20z m325 6 c10 -16 -16
-43 -28 -31 -11 11 -2 41 12 41 5 0 13 -5 16 -10z m-200 -31 c0 -7 -8 -15 -17
-17 -18 -3 -25 18 -11 32 10 10 28 1 28 -15z m-205 -13 c0 -18 -17 -29 -30
-21 -8 5 -7 11 1 21 15 18 29 18 29 0z m1719 10 c-2 -3 -67 -71 -144 -153
-295 -312 -529 -543 -539 -533 -12 12 33 58 359 380 219 216 317 309 324 310
2 0 2 -2 0 -4z m-1382 -22 c5 -15 -28 -27 -40 -15 -5 5 -6 14 -2 21 8 13 37 9
42 -6z m-211 -15 c3 -6 -1 -18 -10 -27 -15 -15 -18 -15 -26 -2 -5 9 -5 19 2
27 13 16 25 17 34 2z m330 -10 c9 -16 -12 -33 -31 -25 -14 5 -15 9 -5 21 15
18 26 19 36 4z m-196 -29 c0 -13 -33 -21 -43 -11 -16 16 12 44 29 30 8 -6 14
-15 14 -19z m-216 -37 c-24 -17 -42 0 -24 22 10 12 16 13 27 3 13 -10 12 -14
-3 -25z m332 -2 c-22 -21 -46 0 -26 24 10 12 16 13 27 3 12 -10 12 -13 -1 -27z
m-201 -1 c10 -16 -16 -43 -28 -31 -11 11 -2 41 12 41 5 0 13 -5 16 -10z m120
-49 c-14 -14 -17 -14 -25 -1 -13 21 8 44 27 28 12 -10 12 -14 -2 -27z m-195
-6 c10 -12 9 -16 -5 -21 -19 -8 -40 9 -31 25 10 15 21 14 36 -4z m130 -30 c0
-19 -20 -29 -32 -17 -8 8 -7 16 2 26 14 17 30 12 30 -9z m-80 -50 c0 -21 -19
-28 -36 -14 -14 12 -14 14 2 26 19 14 34 9 34 -12z m2169 -82 c-10 -21 -48
-101 -85 -178 -36 -77 -99 -208 -139 -292 -44 -92 -71 -160 -68 -172 10 -40
-66 -83 -81 -45 -12 32 -5 56 23 82 17 16 87 139 166 292 152 294 183 350 195
350 4 0 -1 -17 -11 -37z m681 -5 c-5 -13 -18 -57 -29 -98 -12 -41 -50 -176
-85 -300 -35 -124 -82 -292 -105 -375 -23 -82 -61 -222 -86 -310 -25 -88 -45
-166 -45 -172 0 -17 -37 -17 -43 0 -2 6 -1 19 3 27 4 8 40 130 80 270 161 567
293 980 312 980 4 0 3 -10 -2 -22z m906 -315 c17 -22 18 -65 2 -81 -18 -18
-46 -14 -58 8 -10 19 -21 20 -304 20 -252 0 -295 -2 -300 -15 -7 -18 -47 -20
-64 -3 -16 16 -15 39 4 66 l15 22 346 0 c318 0 347 -1 359 -17z m310 -54 c14
-16 15 -19 2 -19 -17 0 -38 41 -37 73 1 18 2 17 9 -7 5 -15 17 -37 26 -47z
m-59 9 c-3 -7 -5 -2 -5 12 0 14 2 19 5 13 2 -7 2 -19 0 -25z m-207 -18 c0 -5
-2 -10 -4 -10 -3 0 -8 5 -11 10 -3 6 -1 10 4 10 6 0 11 -4 11 -10z m120 0 c0
-5 -4 -10 -10 -10 -5 0 -10 5 -10 10 0 6 5 10 10 10 6 0 10 -4 10 -10z m-202
-45 c3 -3 -4 -4 -16 -2 -12 2 -24 6 -28 10 -4 3 4 4 16 2 12 -2 25 -7 28 -10z
m27 -25 c3 -6 -1 -7 -9 -4 -18 7 -21 14 -7 14 6 0 13 -4 16 -10z m-99 -52 c5
-7 3 -8 -6 -3 -9 5 -10 1 -6 -16 6 -20 5 -21 -4 -6 -6 9 -8 22 -5 27 8 13 12
13 21 -2z m25 -57 c-5 -9 -11 -23 -15 -31 -3 -8 -4 -4 0 10 3 14 6 34 5 45 0
15 2 17 9 5 5 -7 5 -21 1 -29z m139 19 c0 -5 -9 -10 -21 -10 -11 0 -17 5 -14
10 3 6 13 10 21 10 8 0 14 -4 14 -10z m-169 -78 c0 -23 2 -24 8 -8 7 19 8 19
16 0 5 -10 10 -29 11 -42 2 -20 1 -22 -12 -11 -26 21 -58 109 -34 94 5 -3 10
-18 11 -33z m-113 -89 c-2 -10 -9 -19 -16 -19 -22 -3 -23 -4 -12 -23 13 -25
-3 -36 -21 -14 -12 14 -12 16 0 8 11 -6 13 -4 8 8 -7 17 15 41 28 29 5 -4 5 1
2 11 -4 9 -2 17 4 17 6 0 9 -8 7 -17z m-1769 -74 c52 -18 78 -88 57 -150 -12
-35 -12 -39 3 -39 10 0 48 -20 85 -45 37 -25 73 -42 79 -39 7 4 9 4 5 -1 -4
-4 4 -22 17 -40 14 -18 25 -45 25 -63 0 -44 -47 -59 -133 -43 -72 14 -157 40
-174 53 -8 6 -13 2 -18 -11 -7 -25 -41 -45 -60 -37 -8 3 -19 23 -26 45 -10 35
-14 39 -30 30 -21 -11 -25 1 -7 19 8 8 4 14 -18 22 -64 25 -178 84 -205 108
-64 54 -70 114 -13 128 53 13 244 -23 244 -46 0 -14 -27 -12 -84 5 -56 17
-162 20 -171 5 -11 -19 28 -67 79 -98 48 -29 159 -82 173 -82 3 0 3 18 -1 39
-6 40 0 71 14 71 4 0 11 -25 15 -55 3 -30 11 -57 16 -61 7 -4 8 7 4 30 -6 31
-5 35 9 30 9 -3 16 -15 16 -25 0 -10 5 -19 10 -19 6 0 10 7 10 16 0 10 5 14
15 10 9 -3 32 7 53 21 39 28 41 33 44 130 4 90 -109 99 -149 12 -20 -42 -33
-50 -33 -19 0 29 29 70 65 91 35 22 42 23 84 8z m1578 -11 c2 -17 0 -19 -7 -8
-5 8 -6 18 -4 22 8 12 10 10 11 -14z m-32 -167 c-9 -8 -36 -10 -30 -2 2 4 11
8 20 8 8 0 13 -3 10 -6z m35 5 c0 -2 -8 -10 -17 -17 -16 -13 -17 -12 -4 4 13
16 21 21 21 13z m-135 -101 c-22 -19 -42 -31 -45 -29 -3 3 4 10 15 16 10 6 28
21 39 33 12 11 23 19 26 17 3 -2 -13 -19 -35 -37z m-285 10 c-7 -9 -15 -13
-19 -10 -3 3 1 10 9 15 21 14 24 12 10 -5z m114 -43 c3 -5 -1 -9 -9 -9 -8 0
-12 4 -9 9 3 4 7 8 9 8 2 0 6 -4 9 -8z m29 -40 c-3 -7 -9 -10 -12 -5 -3 4 -10
11 -15 15 -4 4 1 6 12 5 12 -1 18 -6 15 -15z m44 -8 c4 -13 -46 -66 -58 -59
-5 4 -9 0 -9 -7 0 -8 -5 -6 -11 5 -6 10 -8 21 -5 24 3 4 6 1 6 -4 0 -6 6 -10
13 -9 19 3 37 16 37 28 0 6 -7 5 -17 -3 -14 -12 -14 -10 2 14 17 27 35 31 42
11z m-106 -36 c6 -13 8 -20 4 -15 -5 4 -17 -5 -28 -20 -17 -26 -18 -26 -12 -4
5 17 4 21 -5 16 -7 -4 -4 4 5 19 21 32 21 32 36 4z m4 -48 c-10 -11 -20 -18
-23 -16 -5 6 21 35 32 36 5 0 1 -9 -9 -20z m17 -29 c-29 -28 -40 -45 -36 -58
5 -15 4 -15 -4 -3 -14 18 13 66 48 85 38 21 37 18 -8 -24z m-85 -53 c-3 -8 -6
-5 -6 6 -1 11 2 17 5 13 3 -3 4 -12 1 -19z m37 -40 c-7 -11 -34 -10 -34 2 0 5
7 7 15 4 11 -5 14 -1 9 12 -5 15 -4 16 4 4 6 -8 8 -18 6 -22z m-237 -25 c-3
-10 -5 -4 -5 12 0 17 2 24 5 18 2 -7 2 -21 0 -30z m3 -48 c1 17 3 17 11 -5 11
-26 4 -119 -12 -154 -9 -21 -6 24 7 114 4 23 2 31 -4 22 -7 -11 -10 -10 -16 3
-9 25 -6 43 4 20 l9 -20 1 20z m-21 -109 c-9 -8 -10 -7 -5 7 3 10 7 24 7 30 1
7 3 4 6 -7 3 -10 -1 -23 -8 -30z m-59 -116 c0 -5 -4 -10 -10 -10 -5 0 -10 5
-10 10 0 6 5 10 10 10 6 0 10 -4 10 -10z m-180 -46 c0 -8 -7 -22 -15 -30 -13
-14 -15 -12 -15 15 0 21 5 31 15 31 8 0 15 -7 15 -16z m-215 -264 c0 -7 -6
-15 -12 -17 -8 -3 -13 4 -13 17 0 13 5 20 13 18 6 -3 12 -11 12 -18z m-235
-124 c0 -2 -7 -9 -15 -16 -12 -10 -15 -10 -15 4 0 9 7 16 15 16 8 0 15 -2 15
-4z m-255 -66 c3 -5 1 -10 -4 -10 -6 0 -11 5 -11 10 0 6 2 10 4 10 3 0 8 -4
11 -10z m185 -30 c0 -13 -7 -20 -20 -20 -19 0 -27 20 -13 33 13 14 33 6 33
-13z m-230 -45 c0 -9 -9 -15 -25 -15 -26 0 -34 15 -12 23 23 10 37 7 37 -8z
m-130 -105 c0 -5 -2 -10 -4 -10 -3 0 -8 5 -11 10 -3 6 -1 10 4 10 6 0 11 -4
11 -10z m-65 -60 c3 -5 1 -10 -4 -10 -6 0 -11 5 -11 10 0 6 2 10 4 10 3 0 8
-4 11 -10z"/>
<path d="M4372 6513 c3 -809 -1 -764 70 -815 l33 -23 421 -3 422 -3 6 -112
c18 -294 -73 -455 -289 -512 -68 -17 -226 -20 -306 -5 -125 23 -243 113 -285
215 -18 42 -21 45 -57 45 -35 0 -38 -2 -32 -22 45 -148 195 -279 354 -308 69
-13 243 -13 312 0 185 34 339 190 368 371 6 35 11 207 11 382 l0 317 -40 0
-40 0 0 -150 0 -150 -399 0 c-412 0 -454 4 -466 41 -6 17 -11 440 -14 1202
l-1 257 -35 0 -36 0 3 -727z"/>
<path d="M2109 7170 c-59 -10 -155 -49 -225 -91 -113 -68 -205 -203 -244 -355
-18 -70 -20 -112 -20 -434 l0 -357 31 -7 c17 -3 35 -3 40 0 5 3 9 163 9 363 0
197 4 382 10 411 32 169 177 327 348 380 78 24 240 27 321 5 141 -37 266 -137
326 -259 64 -131 65 -141 65 -652 0 -253 3 -495 6 -537 l7 -77 33 0 34 0 0
525 c0 440 3 538 16 603 51 251 243 412 494 415 47 0 110 -5 140 -13 187 -45
337 -194 382 -379 7 -31 10 -225 9 -598 l-3 -553 41 0 41 0 0 546 c0 610 -2
631 -68 758 -184 353 -684 424 -957 135 -38 -41 -80 -99 -100 -140 l-36 -70
-36 72 c-53 106 -147 198 -254 248 -133 62 -276 83 -410 61z"/>
<path d="M1620 5746 l0 -176 41 0 41 0 -3 166 c-2 91 -6 167 -9 169 -3 1 -20
6 -37 10 l-33 7 0 -176z"/>
<path d="M5778 7133 c-3 -4 -4 -361 -4 -793 l1 -785 35 0 35 0 0 790 0 790
-32 3 c-17 2 -33 -1 -35 -5z"/>
<path d="M6589 7090 c-161 -29 -303 -192 -329 -379 -6 -44 -10 -366 -10 -817
l0 -744 35 0 35 0 0 513 c0 281 3 529 6 549 l6 36 258 -1 258 -2 4 33 c2 18 0
36 -5 39 -5 3 -125 4 -266 2 l-256 -4 -3 140 c-5 268 21 376 116 473 67 68
130 96 217 96 67 1 168 -24 180 -44 3 -5 0 -18 -7 -29 -9 -15 -9 -23 1 -35 8
-9 19 -16 26 -16 15 0 65 56 65 72 0 18 -73 80 -115 99 -49 21 -153 31 -216
19z"/>
<path d="M7687 7079 c-156 -18 -314 -133 -387 -283 -53 -108 -60 -163 -60
-466 1 -300 8 -368 47 -452 55 -115 154 -206 280 -255 67 -26 72 -26 277 -24
195 2 213 4 275 27 129 49 215 123 270 233 17 33 31 65 31 71 0 5 -15 10 -34
10 -30 0 -36 -4 -46 -34 -17 -53 -88 -135 -152 -176 -94 -61 -153 -72 -368
-68 l-185 3 -78 37 c-133 64 -215 169 -237 305 -6 32 -10 111 -10 176 l0 117
565 0 565 0 0 176 c0 162 -2 181 -26 252 -47 142 -137 246 -266 307 -107 51
-270 67 -461 44z m395 -88 c77 -30 169 -99 209 -157 61 -90 72 -133 77 -306
l4 -158 -531 0 -531 0 0 118 c0 184 36 287 136 392 108 114 193 141 419 136
136 -2 168 -6 217 -25z m308 -1102 c0 -11 -29 -19 -34 -10 -3 5 -3 10 -1 13 8
7 35 5 35 -3z"/>
<path d="M7633 6856 c-105 -49 -175 -152 -188 -278 l-7 -68 242 0 242 0 142
71 c77 39 145 75 150 80 17 15 -26 89 -80 139 -77 69 -117 80 -298 80 -138 0
-155 -2 -203 -24z"/>
<path d="M8105 6577 l-119 -62 118 -3 c65 -1 121 -1 123 2 2 2 3 31 1 64 l-3
61 -120 -62z"/>
<path d="M3762 4153 c-1 -296 2 -657 6 -803 7 -260 8 -266 35 -323 39 -85 78
-130 146 -166 l60 -32 15 28 c8 15 15 24 16 20 0 -5 -5 -17 -10 -27 -9 -17 -6
-20 25 -26 45 -8 119 3 171 26 43 18 124 85 124 102 0 5 -12 25 -26 44 -22 28
-29 32 -41 23 -8 -7 -13 -22 -11 -35 7 -52 -69 -94 -171 -94 -111 0 -195 63
-245 184 -20 49 -21 69 -24 569 l-3 517 246 0 245 0 0 35 0 35 -242 2 -243 3
0 228 0 227 -36 0 -37 0 0 -537z"/>
<path d="M4680 4585 l0 -55 35 0 35 0 0 55 0 55 -35 0 -35 0 0 -55z"/>
<path d="M4680 3500 l0 -730 35 0 35 0 0 730 0 730 -35 0 -35 0 0 -730z"/>
<path d="M1810 3261 c0 -23 16 -36 25 -21 3 6 -1 17 -9 26 -15 14 -16 14 -16
-5z"/>
<path d="M1480 3096 c0 -9 7 -16 16 -16 9 0 14 5 12 12 -6 18 -28 21 -28 4z"/>
<path d="M1870 3019 c0 -5 5 -7 10 -4 6 3 10 8 10 11 0 2 -4 4 -10 4 -5 0 -10
-5 -10 -11z"/>
<path d="M1995 2990 c-3 -5 -1 -10 4 -10 6 0 11 5 11 10 0 6 -2 10 -4 10 -3 0
-8 -4 -11 -10z"/>
<path d="M1585 2950 c-3 -5 -1 -10 4 -10 6 0 11 5 11 10 0 6 -2 10 -4 10 -3 0
-8 -4 -11 -10z"/>
<path d="M4822 2288 c-7 -7 -12 -17 -12 -22 0 -6 5 -3 11 6 8 15 38 17 306 18
163 0 299 3 302 5 2 3 -131 5 -295 5 -220 0 -303 -3 -312 -12z"/>
<path d="M5486 2277 c3 -10 9 -15 12 -12 3 3 0 11 -7 18 -10 9 -11 8 -5 -6z"/>
<path d="M5410 1980 c0 -5 5 -10 11 -10 5 0 7 5 4 10 -3 6 -8 10 -11 10 -2 0
-4 -4 -4 -10z"/>
<path d="M3518 1612 c-25 -18 -35 -32 -31 -42 4 -8 6 -27 6 -42 0 -16 1 -28 2
-28 1 0 38 -9 81 -20 44 -11 103 -20 132 -20 45 0 52 3 52 19 0 24 -90 106
-152 137 -26 13 -49 24 -50 23 -2 0 -20 -13 -40 -27z"/>
<path d="M3451 1561 c-10 -6 -11 -13 -3 -27 10 -18 11 -18 17 -2 10 25 3 39
-14 29z"/>
<path d="M3410 1503 c0 -38 16 -52 25 -22 5 14 1 27 -9 37 -15 15 -16 14 -16
-15z"/>
<path d="M4845 1490 c-3 -5 -1 -10 4 -10 6 0 11 5 11 10 0 6 -2 10 -4 10 -3 0
-8 -4 -11 -10z"/>
<path d="M4736 1453 c-6 -14 -5 -15 5 -6 7 7 10 15 7 18 -3 3 -9 -2 -12 -12z"/>
<path d="M10090 5750 c-8 -5 -11 -12 -7 -16 4 -4 15 0 24 9 18 18 8 23 -17 7z"/>
<path d="M9866 5544 c-9 -22 -8 -24 9 -24 8 0 15 6 15 14 0 22 -17 28 -24 10z"/>
<path d="M8794 5176 c-8 -22 0 -373 9 -382 4 -5 12 -2 17 6 8 12 10 12 10 1 0
-7 6 -11 13 -8 8 3 20 1 27 -3 20 -12 33 -1 19 16 -9 11 -9 17 1 29 11 13 15
13 33 0 24 -17 37 -19 37 -6 0 5 -9 11 -20 14 -23 6 -26 32 -7 52 11 11 15 10
25 -6 7 -10 12 -28 12 -40 0 -19 1 -20 17 -3 13 13 14 19 5 22 -7 2 -9 9 -6
14 4 6 2 8 -4 4 -6 -3 -13 -2 -17 4 -7 11 28 14 39 3 4 -4 17 -8 29 -8 14 0
23 -8 28 -25 6 -20 7 -21 8 -5 0 23 -23 58 -32 48 -4 -3 -7 -1 -7 5 0 5 6 13
13 15 6 3 2 6 -10 6 -16 1 -21 -3 -17 -14 4 -8 2 -15 -4 -15 -14 0 -25 34 -13
38 6 2 11 13 11 24 0 29 42 20 51 -12 6 -20 7 -21 8 -5 1 38 -28 60 -57 42
-15 -10 -74 1 -84 16 -4 6 -10 8 -15 4 -4 -5 -1 -13 7 -18 11 -8 9 -9 -10 -4
-20 6 -23 5 -12 -6 6 -7 12 -22 12 -33 0 -18 -2 -17 -15 7 -24 46 2 75 50 57
19 -7 23 -6 18 5 -3 8 -14 15 -24 15 -12 0 -19 7 -19 20 0 15 7 20 25 20 20 0
25 -5 25 -27 0 -26 1 -26 15 -7 12 16 14 17 15 2 0 -25 38 -33 61 -12 21 19
27 6 7 -15 -11 -11 -9 -11 10 -2 13 7 22 21 22 35 0 17 7 25 25 28 23 5 25 2
25 -28 0 -36 -8 -42 -28 -22 -9 9 -12 9 -12 0 0 -7 5 -12 11 -12 6 0 8 -9 4
-20 -6 -20 -5 -20 17 2 15 16 22 33 21 53 -1 19 0 22 3 10 8 -26 24 -45 38
-45 6 0 4 6 -5 13 -21 16 -31 58 -18 74 7 7 22 10 40 6 27 -5 35 2 30 30 0 4
4 7 9 7 6 0 10 11 10 25 0 14 -6 25 -13 25 -15 0 -37 -20 -37 -34 0 -6 5 -5
12 2 7 7 16 12 21 12 5 0 2 -6 -5 -13 -23 -23 -59 -39 -75 -33 -9 4 -23 1 -32
-6 -13 -10 -14 -10 -3 2 6 8 12 24 12 37 0 23 -1 23 -120 23 l-120 0 0 -26 c0
-23 -3 -25 -32 -22 -24 2 -34 9 -37 23 -6 33 -37 46 -47 21z m451 -56 c-3 -5
-13 -10 -21 -10 -8 0 -12 5 -9 10 3 6 13 10 21 10 8 0 12 -4 9 -10z m-75 -20
c0 -5 -4 -10 -10 -10 -5 0 -10 5 -10 10 0 6 5 10 10 10 6 0 10 -4 10 -10z
m-293 -49 c3 -13 11 -18 21 -14 13 4 14 3 3 -5 -7 -5 -18 -16 -23 -23 -8 -11
-9 -10 -4 3 4 14 0 17 -17 15 -16 -1 -23 4 -25 21 -3 17 2 22 18 22 13 0 24
-8 27 -19z m183 0 c0 -22 -29 -36 -43 -22 -15 15 0 41 23 41 13 0 20 -7 20
-19z m-194 -79 c6 -4 13 -16 16 -28 4 -17 1 -20 -23 -16 -19 3 -29 10 -29 21
0 28 15 38 36 23z m122 -4 c22 -2 -20 -38 -45 -38 -16 0 -23 6 -23 18 0 26 11
34 35 27 11 -4 26 -7 33 -7z m-3 -48 c3 -5 -1 -10 -10 -10 -9 0 -13 5 -10 10
3 6 8 10 10 10 2 0 7 -4 10 -10z m-55 -10 c0 -5 -2 -10 -4 -10 -3 0 -8 5 -11
10 -3 6 -1 10 4 10 6 0 11 -4 11 -10z m-52 -34 c1 -28 -3 -35 -23 -39 -21 -3
-25 0 -25 20 0 16 7 27 20 30 11 3 20 9 20 14 0 5 2 9 3 9 2 0 4 -15 5 -34z
m31 -11 c0 -5 -4 -3 -9 5 -5 8 -9 22 -9 30 0 16 17 -16 18 -35z"/>
<path d="M9343 5060 c0 -36 2 -50 4 -32 2 17 2 47 0 65 -2 17 -4 3 -4 -33z"/>
<path d="M9261 5096 c-7 -8 -8 -17 -3 -20 6 -3 13 1 16 10 9 23 2 28 -13 10z"/>
<path d="M9190 5080 c0 -5 7 -7 15 -4 9 4 18 -1 22 -12 12 -34 43 -46 43 -16
0 14 -2 15 -10 2 -7 -12 -10 -11 -16 5 -11 30 -54 50 -54 25z"/>
<path d="M9255 5010 c-3 -5 -1 -10 4 -10 6 0 11 5 11 10 0 6 -2 10 -4 10 -3 0
-8 -4 -11 -10z"/>
<path d="M8985 5000 c3 -5 8 -10 11 -10 2 0 4 5 4 10 0 6 -5 10 -11 10 -5 0
-7 -4 -4 -10z"/>
<path d="M9237 4969 c7 -7 15 -10 18 -7 3 3 -2 9 -12 12 -14 6 -15 5 -6 -5z"/>
<path d="M9090 4930 c8 -5 22 -9 30 -9 10 0 8 3 -5 9 -27 12 -43 12 -25 0z"/>
<path d="M9198 4923 c6 -2 18 -2 25 0 6 3 1 5 -13 5 -14 0 -19 -2 -12 -5z"/>
<path d="M9070 4900 c0 -5 5 -10 11 -10 5 0 7 5 4 10 -3 6 -8 10 -11 10 -2 0
-4 -4 -4 -10z"/>
<path d="M9100 4900 c0 -5 5 -10 10 -10 6 0 10 5 10 10 0 6 -4 10 -10 10 -5 0
-10 -4 -10 -10z"/>
<path d="M9179 4883 c-13 -17 -13 -17 6 -3 11 8 22 16 24 17 2 2 0 3 -6 3 -6
0 -17 -8 -24 -17z"/>
<path d="M8927 4803 c-3 -5 8 -8 25 -9 20 -1 25 2 16 7 -16 11 -35 11 -41 2z"/>
<path d="M9006 4801 c-3 -4 6 -6 19 -3 14 2 25 6 25 8 0 8 -39 4 -44 -5z"/>
<path d="M8810 4780 c-13 -9 -13 -10 0 -10 12 0 12 -2 2 -9 -8 -5 -12 -17 -10
-27 3 -16 14 -19 83 -22 43 -2 76 0 73 3 -4 4 -34 7 -67 7 -36 1 -58 5 -55 10
4 5 15 7 26 5 11 -3 17 -3 14 0 -3 4 0 13 6 22 10 13 10 14 -2 4 -20 -19 -40
-16 -48 7 -5 14 -11 17 -22 10z m14 -45 c-4 -8 -8 -15 -10 -15 -2 0 -4 7 -4
15 0 8 4 15 10 15 5 0 7 -7 4 -15z"/>
<path d="M8900 4769 c0 -5 5 -7 10 -4 6 3 10 8 10 11 0 2 -4 4 -10 4 -5 0 -10
-5 -10 -11z"/>
<path d="M8978 4773 c7 -3 16 -2 19 1 4 3 -2 6 -13 5 -11 0 -14 -3 -6 -6z"/>
<path d="M8998 4753 c7 -3 16 -2 19 1 4 3 -2 6 -13 5 -11 0 -14 -3 -6 -6z"/>
<path d="M9311 4734 c0 -11 3 -14 6 -6 3 7 2 16 -1 19 -3 4 -6 -2 -5 -13z"/>
<path d="M8978 4733 c7 -3 16 -2 19 1 4 3 -2 6 -13 5 -11 0 -14 -3 -6 -6z"/>
<path d="M8999 4719 c-14 -4 8 -7 51 -7 75 0 78 4 9 10 -19 2 -46 1 -60 -3z"/>
<path d="M9210 4720 c0 -5 5 -10 11 -10 5 0 7 5 4 10 -3 6 -8 10 -11 10 -2 0
-4 -4 -4 -10z"/>
<path d="M8815 4650 c-10 -11 -13 -20 -8 -20 6 0 16 7 23 15 10 12 48 15 194
18 l181 2 -186 3 c-175 2 -187 1 -204 -18z"/>
<path d="M8860 4600 c0 -5 4 -10 9 -10 6 0 13 5 16 10 3 6 -1 10 -9 10 -9 0
-16 -4 -16 -10z"/>
<path d="M8470 4384 c-24 -13 -24 -14 -4 -14 12 0 54 -13 93 -29 42 -17 67
-23 60 -15 -6 8 -17 14 -24 14 -7 0 -18 7 -25 15 -7 8 -16 13 -20 10 -4 -3
-20 1 -35 9 -23 12 -24 15 -8 19 10 3 12 5 3 5 -8 0 -26 -6 -40 -14z"/>
<path d="M8536 4392 c-2 -4 16 -7 40 -8 24 0 42 1 39 4 -7 8 -75 11 -79 4z"/>
<path d="M5600 4259 c-227 -24 -411 -191 -465 -422 -13 -56 -15 -150 -15 -567
l1 -500 33 0 33 0 2 500 c2 400 5 512 17 558 80 314 401 459 700 317 85 -41
177 -133 219 -219 48 -98 54 -154 56 -496 2 -204 4 -276 8 -203 4 69 11 117
19 125 9 10 12 -1 12 -55 0 -37 4 -67 9 -67 5 0 12 -12 14 -27 2 -16 5 105 6
267 1 319 5 349 59 463 112 240 409 334 662 210 45 -22 94 -56 125 -87 27 -28
54 -49 58 -48 5 1 6 -2 3 -6 -3 -5 8 -34 23 -63 32 -58 60 -156 62 -210 l1
-34 8 39 c4 21 5 48 3 60 -4 16 -2 17 5 7 8 -11 11 -11 16 0 3 8 4 1 1 -16 -4
-22 -3 -26 5 -15 7 11 10 -25 12 -120 l2 -135 4 120 c1 66 -2 151 -9 188 -32
194 -197 370 -395 421 -76 20 -231 21 -301 2 -165 -44 -293 -153 -363 -308
l-19 -42 -24 55 c-28 61 -99 148 -161 195 -118 91 -265 130 -426 113z"/>
<path d="M7940 4185 c-14 -8 -20 -14 -15 -14 6 0 21 6 35 14 14 8 21 14 15 14
-5 0 -21 -6 -35 -14z"/>
<path d="M8815 4168 c15 -21 31 -35 36 -32 11 7 12 15 1 12 -5 -2 -21 11 -36
27 l-28 30 27 -37z"/>
<path d="M6641 4045 c-68 -19 -109 -44 -155 -95 -40 -45 -69 -98 -85 -156 -7
-27 -11 -219 -12 -568 0 -466 1 -530 15 -545 9 -10 16 -23 16 -29 0 -7 5 -12
10 -12 16 0 12 14 -15 42 -14 15 -25 34 -25 43 0 14 2 14 23 1 25 -17 67 -11
67 10 0 8 5 14 10 14 6 0 24 10 40 22 29 21 30 25 30 95 l0 73 40 0 c22 0 40
5 40 10 0 6 -10 10 -22 10 l-23 1 23 18 c12 11 22 29 22 40 0 17 6 21 34 21
25 0 35 5 39 20 4 15 14 20 37 20 29 0 32 -3 28 -25 -3 -14 1 -30 8 -36 11 -9
14 -7 14 12 0 30 16 56 27 45 4 -5 2 -11 -4 -13 -22 -8 -14 -25 8 -18 14 5 19
3 15 -3 -4 -7 3 -9 20 -6 18 3 25 1 22 -8 -3 -7 2 -18 11 -25 25 -20 36 -15
16 7 -10 11 -14 20 -10 20 5 0 0 6 -11 14 -16 12 -17 17 -6 28 11 11 12 10 6
-6 -5 -13 -4 -17 4 -12 7 4 12 3 12 -2 0 -5 11 -21 25 -36 14 -15 25 -24 25
-20 0 4 12 -3 27 -17 24 -20 -42 53 -112 126 -11 11 -49 54 -85 95 -36 41 -93
104 -126 140 -34 36 -79 85 -100 109 -22 25 -56 63 -76 85 -20 22 -34 43 -32
46 3 3 127 -118 275 -269 148 -151 269 -269 269 -263 0 6 -10 18 -21 26 -13 9
-19 21 -16 30 4 9 3 15 -1 15 -25 -4 -32 1 -20 15 7 8 15 13 18 13 15 -5 100
61 107 83 5 16 10 -21 14 -110 3 -74 5 52 5 280 l-1 415 -30 60 c-16 33 -37
60 -45 60 -8 1 -14 6 -13 12 4 18 -66 71 -116 88 -67 24 -176 28 -240 10z
m409 -705 c0 -11 -2 -20 -4 -20 -2 0 -6 9 -9 20 -3 11 -1 20 4 20 5 0 9 -9 9
-20z m-170 -102 c0 -5 -7 -3 -15 6 -8 8 -15 18 -15 22 0 3 7 1 15 -6 8 -7 15
-17 15 -22z m-16 -24 c5 -14 4 -15 -9 -4 -17 14 -19 20 -6 20 5 0 12 -7 15
-16z m66 -70 c0 -3 -7 -1 -15 6 -8 7 -15 17 -15 22 0 5 7 3 15 -6 8 -8 15 -18
15 -22z m-65 -64 c3 -5 1 -10 -4 -10 -6 0 -11 5 -11 10 0 6 2 10 4 10 3 0 8
-4 11 -10z"/>
<path d="M8060 4020 c-9 -6 -10 -10 -3 -10 6 0 15 5 18 10 8 12 4 12 -15 0z"/>
<path d="M7716 3963 c-6 -14 -5 -15 5 -6 7 7 10 15 7 18 -3 3 -9 -2 -12 -12z"/>
<path d="M7442 3517 l2 -112 3 103 4 104 24 -6 c35 -9 31 0 -5 13 l-30 10 2
-112z"/>
<path d="M7514 3400 c0 -113 2 -159 3 -102 2 56 2 148 0 205 -1 56 -3 10 -3
-103z"/>
<path d="M6720 2975 c0 -8 7 -15 16 -15 14 0 14 3 4 15 -7 8 -14 15 -16 15 -2
0 -4 -7 -4 -15z"/>
<path d="M6880 2976 c0 -2 7 -7 16 -10 8 -3 12 -2 9 4 -6 10 -25 14 -25 6z"/>
<path d="M7060 2896 c0 -2 7 -7 16 -10 8 -3 12 -2 9 4 -6 10 -25 14 -25 6z"/>
<path d="M6198 2783 c12 -2 30 -2 40 0 9 3 -1 5 -23 4 -22 0 -30 -2 -17 -4z"/>
<path d="M6466 2577 c3 -10 9 -15 12 -12 3 3 0 11 -7 18 -10 9 -11 8 -5 -6z"/>
<path d="M6420 2550 c6 -11 12 -20 14 -20 2 0 2 9 -1 20 -3 11 -9 20 -15 20
-5 0 -4 -9 2 -20z"/>
<path d="M5864 2138 c0 -21 5 -33 10 -28 4 4 4 21 -2 37 -10 28 -10 28 -8 -9z"/>
<path d="M5911 2153 c0 -5 4 -17 9 -28 8 -18 9 -17 9 8 1 15 -3 27 -9 27 -5 0
-10 -3 -9 -7z"/>
<path d="M5876 2083 c-6 -14 -5 -15 5 -6 7 7 10 15 7 18 -3 3 -9 -2 -12 -12z"/>
<path d="M4881 1821 c-47 -80 -126 -216 -177 -301 -135 -228 -134 -226 -134
-318 0 -105 32 -172 105 -217 47 -29 53 -30 174 -32 l126 -1 -125 8 c-134 8
-165 18 -212 67 -42 44 -58 94 -58 178 0 85 9 106 120 285 32 52 102 172 156
265 53 94 103 177 111 187 8 9 11 18 6 21 -4 3 -46 -61 -92 -142z"/>
<path d="M5480 1910 c0 -6 -5 -8 -12 -4 -7 4 -8 3 -4 -5 4 -6 11 -9 16 -6 4 3
11 -1 13 -7 4 -8 6 -7 6 4 1 9 -3 20 -9 23 -5 3 -10 1 -10 -5z"/>
<path d="M5941 1854 c0 -11 3 -14 6 -6 3 7 2 16 -1 19 -3 4 -6 -2 -5 -13z"/>
<path d="M5271 1804 c0 -11 3 -14 6 -6 3 7 2 16 -1 19 -3 4 -6 -2 -5 -13z"/>
<path d="M5450 1713 c0 -6 8 -17 18 -24 16 -13 16 -13 2 6 -8 11 -16 22 -17
24 -2 2 -3 0 -3 -6z"/>
<path d="M5476 1657 c3 -10 9 -15 12 -12 3 3 0 11 -7 18 -10 9 -11 8 -5 -6z"/>
<path d="M5500 1621 c0 -6 4 -13 10 -16 6 -3 7 1 4 9 -7 18 -14 21 -14 7z"/>
<path d="M5526 1577 c3 -10 9 -15 12 -12 3 3 0 11 -7 18 -10 9 -11 8 -5 -6z"/>
<path d="M5595 1545 c15 -27 32 -54 38 -60 6 -5 -2 13 -18 40 -15 28 -32 55
-38 60 -6 6 2 -12 18 -40z"/>
<path d="M5635 1561 c-3 -5 -2 -12 3 -15 5 -3 9 1 9 9 0 17 -3 19 -12 6z"/>
<path d="M5374 1535 c8 -8 18 -15 22 -15 3 0 1 7 -6 15 -7 8 -17 15 -22 15 -5
0 -3 -7 6 -15z"/>
<path d="M5655 1531 c-3 -5 -2 -12 3 -15 5 -3 9 1 9 9 0 17 -3 19 -12 6z"/>
<path d="M5660 1430 c6 -11 13 -20 16 -20 2 0 0 9 -6 20 -6 11 -13 20 -16 20
-2 0 0 -9 6 -20z"/>
<path d="M5730 1315 c0 -5 5 -17 10 -25 5 -8 10 -10 10 -5 0 6 -5 17 -10 25
-5 8 -10 11 -10 5z"/>
<path d="M4610 1226 c0 -73 17 -140 41 -162 10 -9 19 -12 19 -6 0 6 -6 15 -14
19 -18 10 -27 49 -30 131 -3 79 -16 94 -16 18z"/>
<path d="M4740 1112 c0 -7 5 -12 11 -12 6 0 8 -9 4 -22 -3 -13 -3 -18 2 -13 5
6 12 13 16 16 4 3 -2 14 -13 24 -11 10 -20 13 -20 7z"/>
<path d="M4769 1053 c-13 -15 -12 -15 9 -4 23 12 28 21 13 21 -5 0 -15 -7 -22
-17z"/>
<path d="M4694 1026 c11 -9 24 -16 30 -16 12 0 7 5 -24 19 -24 11 -24 11 -6
-3z"/>
<path d="M4858 1033 c7 -3 16 -2 19 1 4 3 -2 6 -13 5 -11 0 -14 -3 -6 -6z"/>
<path d="M4748 1003 c7 -3 16 -2 19 1 4 3 -2 6 -13 5 -11 0 -14 -3 -6 -6z"/>
<path d="M4788 1003 c7 -3 16 -2 19 1 4 3 -2 6 -13 5 -11 0 -14 -3 -6 -6z"/>
<path d="M5098 1003 c7 -3 16 -2 19 1 4 3 -2 6 -13 5 -11 0 -14 -3 -6 -6z"/>
<path d="M5008 963 c12 -2 32 -2 45 0 12 2 2 4 -23 4 -25 0 -35 -2 -22 -4z"/>
<path d="M4813 913 c42 -2 112 -2 155 0 42 1 7 3 -78 3 -85 0 -120 -2 -77 -3z"/>
<path d="M3825 470 c-3 -5 -1 -10 4 -10 6 0 11 5 11 10 0 6 -2 10 -4 10 -3 0
-8 -4 -11 -10z"/>
</g>
</svg>
